<svg t="1737681112495" class="icon" viewBox="0 0 1024 1024" version="1.1" xmlns="http://www.w3.org/2000/svg" p-id="2559" width="200" height="200"><path d="M986.467644 320.049884h-474.469829A191.947931 191.947931 0 0 0 344.369876 605.899781L107.109961 198.859928a511.691815 511.691815 0 0 1 879.357683 121.189956z" fill="#F44336" p-id="2560"></path><path d="M1023.99763 511.998815a512.459815 512.459815 0 0 1-511.999815 511.998815 461.771833 461.771833 0 0 1-63.998977-4.249998l230.399917-411.749852a192.45993 192.45993 0 0 0-70.399975-262.398905 190.258931 190.258931 0 0 0-95.539965-25.599991h474.009829a505.700817 505.700817 0 0 1 37.528986 191.999931z" fill="#FFC107" p-id="2561"></path><path d="M678.397755 607.99878L447.999838 1019.748632h-0.41A511.742815 511.742815 0 0 1 107.109961 198.859928L344.369876 605.899781l1.279999 2.098999a191.947931 191.947931 0 0 0 332.79988 0z" fill="#4CAF50" p-id="2562"></path><path d="M511.281815 725.297738a211.864923 211.864923 0 0 1-105.932961-28.36499 213.912923 213.912923 0 1 1 105.932961 28.36499z" fill="#FFFFFF" p-id="2563"></path><path d="M499.709819 341.707877a170.649938 170.649938 0 1 0 86.476969 16.690994 170.187939 170.187939 0 0 0-86.475969-16.690994z" fill="#2196F3" p-id="2564"></path></svg>