<svg t="1732025427242" class="icon" viewBox="0 0 1042 1024" version="1.1" xmlns="http://www.w3.org/2000/svg" p-id="10596" width="200" height="200"><path d="M1025.828571 594.285714c0-149.942857-138.971429-272.457143-310.857142-272.457143-34.742857 0-67.657143 5.485714-100.571429 14.628572C581.485714 213.942857 457.142857 128 312.685714 128 140.8 128 1.828571 250.514286 1.828571 400.457143c0 74.971429 34.742857 146.285714 96.914286 197.485714-7.314286 29.257143-12.8 58.514286-12.8 58.514286-3.657143 12.8 1.828571 27.428571 12.8 36.571428 7.314286 5.485714 14.628571 9.142857 23.771429 9.142858 5.485714 0 9.142857-1.828571 14.628571-3.657143 1.828571 0 38.4-16.457143 84.114286-38.4 62.171429 16.457143 131.657143 16.457143 193.828571-1.828572 32.914286 120.685714 155.428571 210.285714 301.714286 210.285715 32.914286 0 64-3.657143 93.257143-12.8 45.714286 21.942857 82.285714 38.4 84.114286 38.4 5.485714 1.828571 9.142857 3.657143 14.628571 3.657142 9.142857 0 16.457143-3.657143 23.771429-9.142857 10.971429-9.142857 14.628571-23.771429 12.8-36.571428 0 0-7.314286-29.257143-12.8-58.514286 58.514286-53.028571 93.257143-124.342857 93.257142-199.314286zM221.257143 384c-20.114286 0-36.571429-16.457143-36.571429-36.571429s16.457143-36.571429 36.571429-36.571428 36.571429 16.457143 36.571428 36.571428-16.457143 36.571429-36.571428 36.571429z m182.857143 0c-20.114286 0-36.571429-16.457143-36.571429-36.571429s16.457143-36.571429 36.571429-36.571428 36.571429 16.457143 36.571428 36.571428-16.457143 36.571429-36.571428 36.571429z m219.428571 195.657143c-20.114286 0-36.571429-16.457143-36.571428-36.571429s16.457143-36.571429 36.571428-36.571428 36.571429 16.457143 36.571429 36.571428-16.457143 36.571429-36.571429 36.571429z m182.857143 0c-20.114286 0-36.571429-16.457143-36.571429-36.571429s16.457143-36.571429 36.571429-36.571428 36.571429 16.457143 36.571429 36.571428-16.457143 36.571429-36.571429 36.571429z" fill="#15D36A" p-id="10597"></path></svg>